<svg width="24" height="24" viewBox="0 0 24 24" fill="none" xmlns="http://www.w3.org/2000/svg">
<path d="M6 12C6 16.42 9.58 20 14 20C14.96 20 15.78 19.85 16.7 19.52V19.4C15.59 19.68 15.13 19.32 14.62 18.76C12.99 16.98 12 14.6 12 12C12 9.4 12.99 7.02 14.62 5.24C15.13 4.68 15.59 4.32 16.7 4.6V4.48C15.78 4.15 14.96 4 14 4C9.58 4 6 7.58 6 12ZM4 12C4 6.48 8.47 2 14 2C15.59 2 17.1 2.37 18.44 3.04C18.78 3.21 19 3.56 19 3.94C19 4.32 18.78 4.66 18.44 4.83C15.81 6.14 14 8.86 14 12C14 15.14 15.81 17.86 18.44 19.17C18.78 19.34 19 19.68 19 20.06C19 20.44 18.78 20.79 18.44 20.96C17.1 21.63 15.59 22 14 22C8.47 22 4 17.52 4 12Z" fill="#fff"/>
</svg>
